<?xml version="1.0" encoding="utf-8"?>
<!-- Generator: Adobe Illustrator 16.0.0, SVG Export Plug-In . SVG Version: 6.00 Build 0)  -->
<!DOCTYPE svg PUBLIC "-//W3C//DTD SVG 1.1//EN" "http://www.w3.org/Graphics/SVG/1.1/DTD/svg11.dtd">
<svg version="1.1" xmlns="http://www.w3.org/2000/svg" xmlns:xlink="http://www.w3.org/1999/xlink" x="0px" y="0px" width="208px"
	 height="208px" viewBox="0 0 208 208" enable-background="new 0 0 208 208" xml:space="preserve">
<g id="Layer_1">
	<circle fill="#EDBA08" cx="51.5" cy="51.5" r="48.5"/>
	
		<circle fill-rule="evenodd" clip-rule="evenodd" fill="#FFFFFF" stroke="#E4BE54" stroke-width="3" stroke-miterlimit="10" cx="127.25" cy="127.25" r="75.75"/>
</g>
<g id="Layer_2">
	<g>
		<path fill="#BC8213" d="M105.201,122.863c11.746,11.748,23.336,23.342,34.85,34.857c-11.502,11.493-23.098,23.081-34.763,34.738
			c-1.049-1.06-1.289-2.524-1.288-4.086c0.006-20.454,0.005-40.908,0.022-61.363c0.001-0.734,0.072-1.496,0.273-2.197
			C104.492,124.125,104.898,123.496,105.201,122.863z"/>
		<path fill-rule="evenodd" clip-rule="evenodd" fill="#CCA74C" d="M142.248,159.834c3.095,3.079,6.316,6.283,9.573,9.523
			c-14.251,7.995-28.55,16.018-42.849,24.04c-0.029-0.08-0.057-0.16-0.086-0.239C120.019,182.038,131.149,170.92,142.248,159.834z"
			/>
		<path fill-rule="evenodd" clip-rule="evenodd" fill="#E4BE54" d="M108.984,122c14.296,8.019,28.593,16.036,42.74,23.972
			c-3.245,3.259-6.449,6.477-9.534,9.573c-11.048-11.043-22.176-22.167-33.304-33.291C108.92,122.17,108.952,122.086,108.984,122z"
			/>
		<path fill-rule="evenodd" clip-rule="evenodd" fill="#CEAE28" d="M154.587,147.58c4.005,2.253,8.385,4.585,12.625,7.149
			c2.722,1.645,2.673,4.329-0.081,5.978c-4.215,2.521-8.548,4.848-12.722,7.195c-3.457-3.462-6.833-6.841-10.107-10.119
			C147.617,154.494,151.031,151.107,154.587,147.58z"/>
	</g>
</g>
<g id="Layer_3">
	<g>
		<rect x="3" y="12" fill-rule="evenodd" clip-rule="evenodd" fill="none" width="95" height="84"/>
		<path fill="#FFFFFF" d="M39.05,22.807h6.795v9.721c-1.058,0.337-2.133,0.593-3.227,0.766s-2.361,0.26-3.801,0.26
			c-3.026,0-5.382-0.9-7.068-2.7c-1.687-1.8-2.529-4.322-2.529-7.567c0-2.078,0.417-3.898,1.251-5.462
			c0.834-1.563,2.035-2.757,3.603-3.582c1.567-0.825,3.404-1.237,5.51-1.237c2.133,0,4.12,0.392,5.961,1.176l-0.902,2.051
			c-1.805-0.766-3.541-1.148-5.209-1.148c-2.434,0-4.334,0.725-5.701,2.174s-2.051,3.459-2.051,6.029
			c0,2.698,0.658,4.744,1.976,6.139c1.317,1.395,3.251,2.092,5.804,2.092c1.385,0,2.739-0.159,4.061-0.479v-6.152H39.05V22.807z"/>
		<path fill="#FFFFFF" d="M56.632,33.553c-2.215,0-3.963-0.674-5.243-2.023c-1.281-1.349-1.921-3.222-1.921-5.619
			c0-2.415,0.595-4.334,1.784-5.756s2.787-2.133,4.792-2.133c1.877,0,3.363,0.618,4.457,1.853c1.094,1.235,1.641,2.864,1.641,4.888
			v1.436H51.819c0.045,1.759,0.49,3.095,1.333,4.006c0.843,0.912,2.03,1.367,3.562,1.367c1.613,0,3.208-0.337,4.785-1.012v2.023
			c-0.802,0.347-1.561,0.595-2.276,0.745C58.507,33.478,57.644,33.553,56.632,33.553z M56.017,19.922
			c-1.203,0-2.163,0.392-2.878,1.176c-0.716,0.784-1.137,1.869-1.265,3.254h7.834c0-1.431-0.319-2.527-0.957-3.288
			C58.113,20.303,57.201,19.922,56.017,19.922z"/>
		<path fill="#FFFFFF" d="M70.851,31.68c0.401,0,0.788-0.029,1.162-0.089c0.374-0.059,0.67-0.121,0.889-0.185v1.736
			c-0.246,0.119-0.608,0.216-1.087,0.294c-0.479,0.077-0.909,0.116-1.292,0.116c-2.898,0-4.348-1.526-4.348-4.58v-8.914h-2.146
			v-1.094l2.146-0.943l0.957-3.199h1.313v3.473h4.348v1.764h-4.348v8.818c0,0.902,0.214,1.595,0.643,2.078
			C69.515,31.439,70.103,31.68,70.851,31.68z"/>
		<path fill="#FFFFFF" d="M44.231,36.235c0-0.52,0.127-0.9,0.383-1.142c0.255-0.241,0.574-0.362,0.957-0.362
			c0.364,0,0.679,0.123,0.943,0.369c0.264,0.246,0.396,0.625,0.396,1.135c0,0.511-0.132,0.891-0.396,1.142
			c-0.265,0.251-0.579,0.376-0.943,0.376c-0.383,0-0.702-0.125-0.957-0.376C44.359,37.126,44.231,36.746,44.231,36.235z
			 M46.692,55.28h-2.27V40.295h2.27V55.28z"/>
		<path fill="#FFFFFF" d="M56.345,53.68c0.401,0,0.788-0.029,1.162-0.089c0.374-0.059,0.67-0.121,0.889-0.185v1.736
			c-0.246,0.119-0.608,0.216-1.087,0.294c-0.479,0.077-0.909,0.116-1.292,0.116c-2.898,0-4.348-1.526-4.348-4.58v-8.914h-2.146
			v-1.094l2.146-0.943l0.957-3.199h1.313v3.473h4.348v1.764h-4.348v8.818c0,0.902,0.214,1.595,0.643,2.078
			C55.009,53.439,55.597,53.68,56.345,53.68z"/>
		<path fill="#FFFFFF" d="M48.791,69.774c0,2.443-0.615,4.35-1.846,5.722c-1.23,1.372-2.931,2.058-5.1,2.058
			c-1.34,0-2.529-0.314-3.568-0.943s-1.841-1.531-2.406-2.707c-0.565-1.176-0.848-2.552-0.848-4.129c0-2.442,0.61-4.345,1.832-5.708
			c1.221-1.362,2.917-2.044,5.086-2.044c2.096,0,3.762,0.697,4.997,2.092C48.173,65.508,48.791,67.395,48.791,69.774z
			 M37.375,69.774c0,1.914,0.383,3.373,1.148,4.375c0.766,1.003,1.891,1.504,3.377,1.504c1.485,0,2.613-0.499,3.384-1.497
			c0.77-0.998,1.155-2.458,1.155-4.382c0-1.905-0.385-3.352-1.155-4.341c-0.771-0.989-1.907-1.483-3.411-1.483
			c-1.486,0-2.607,0.488-3.363,1.463C37.753,66.388,37.375,67.842,37.375,69.774z"/>
		<path fill="#FFFFFF" d="M63.023,77.28v-9.693c0-1.221-0.278-2.133-0.834-2.734c-0.556-0.602-1.427-0.902-2.611-0.902
			c-1.568,0-2.716,0.424-3.445,1.271c-0.729,0.848-1.094,2.247-1.094,4.197v7.861h-2.27V62.295h1.846l0.369,2.051h0.109
			c0.465-0.738,1.116-1.31,1.955-1.716c0.838-0.405,1.772-0.608,2.803-0.608c1.805,0,3.163,0.436,4.074,1.306
			c0.911,0.871,1.367,2.263,1.367,4.177v9.775H63.023z"/>
	</g>
</g>
<g id="Layer_4">
	<g>
		<rect x="79" y="71" fill-rule="evenodd" clip-rule="evenodd" fill="none" width="95" height="84"/>
		<path fill="#938970" d="M95.068,81.807h6.275l-2.105,9.721c-1.969,0.684-3.878,1.025-5.729,1.025
			c-2.406,0-4.277-0.658-5.612-1.976c-1.335-1.317-2.003-3.156-2.003-5.517c0-2.452,0.462-4.683,1.388-6.692
			c0.925-2.01,2.208-3.573,3.849-4.689c1.641-1.116,3.459-1.675,5.455-1.675c1.066,0,2.066,0.091,3.001,0.273
			c0.934,0.183,1.875,0.474,2.823,0.875l-0.902,2.078c-0.702-0.31-1.456-0.579-2.263-0.807c-0.807-0.228-1.693-0.342-2.659-0.342
			c-1.541,0-2.942,0.463-4.204,1.388c-1.263,0.925-2.245,2.217-2.946,3.876c-0.702,1.659-1.053,3.514-1.053,5.564
			c0,1.732,0.467,3.095,1.401,4.088c0.934,0.994,2.24,1.49,3.917,1.49c1.403,0,2.588-0.178,3.555-0.533l1.313-6.07h-3.951
			L95.068,81.807z"/>
		<path fill="#938970" d="M111.584,77.104c1.731,0,3.099,0.513,4.102,1.538c1.002,1.025,1.504,2.436,1.504,4.231
			c0,1.714-0.328,3.332-0.984,4.854c-0.656,1.522-1.545,2.698-2.666,3.527c-1.121,0.83-2.389,1.244-3.801,1.244
			c-1.75,0-3.122-0.515-4.115-1.545c-0.994-1.03-1.49-2.438-1.49-4.225c0-1.731,0.333-3.361,0.998-4.888
			c0.665-1.526,1.563-2.698,2.693-3.514C108.954,77.512,110.207,77.104,111.584,77.104z M114.811,82.559
			c0-1.048-0.285-1.898-0.854-2.55c-0.569-0.651-1.343-0.978-2.317-0.978c-0.994,0-1.885,0.337-2.673,1.012
			c-0.788,0.675-1.399,1.611-1.832,2.81c-0.433,1.199-0.649,2.532-0.649,3.999c0,1.194,0.289,2.117,0.868,2.769
			c0.579,0.652,1.41,0.978,2.495,0.978c0.947,0,1.8-0.333,2.557-0.998c0.756-0.665,1.347-1.611,1.771-2.837
			C114.599,85.538,114.811,84.136,114.811,82.559z"/>
		<path fill="#938970" d="M127.293,77.104c1.731,0,3.099,0.513,4.102,1.538c1.002,1.025,1.504,2.436,1.504,4.231
			c0,1.714-0.328,3.332-0.984,4.854c-0.656,1.522-1.545,2.698-2.666,3.527c-1.121,0.83-2.389,1.244-3.801,1.244
			c-1.75,0-3.122-0.515-4.115-1.545c-0.994-1.03-1.49-2.438-1.49-4.225c0-1.731,0.332-3.361,0.998-4.888
			c0.665-1.526,1.563-2.698,2.693-3.514C124.663,77.512,125.916,77.104,127.293,77.104z M130.52,82.559
			c0-1.048-0.285-1.898-0.854-2.55c-0.569-0.651-1.343-0.978-2.317-0.978c-0.994,0-1.885,0.337-2.673,1.012
			c-0.788,0.675-1.399,1.611-1.832,2.81c-0.433,1.199-0.649,2.532-0.649,3.999c0,1.194,0.289,2.117,0.868,2.769
			c0.579,0.652,1.41,0.978,2.495,0.978c0.947,0,1.8-0.333,2.557-0.998c0.756-0.665,1.347-1.611,1.771-2.837
			C130.308,85.538,130.52,84.136,130.52,82.559z"/>
		<path fill="#938970" d="M149.25,77.295l-0.342,1.463l-2.885,0.328c0.373,0.565,0.561,1.285,0.561,2.16
			c0,1.741-0.531,3.129-1.593,4.163c-1.062,1.035-2.481,1.552-4.259,1.552c-0.502,0-0.885-0.036-1.148-0.109
			c-1.268,0.483-1.9,1.08-1.9,1.791c0,0.374,0.15,0.622,0.451,0.745s0.738,0.221,1.313,0.294l1.6,0.191
			c1.649,0.201,2.846,0.602,3.589,1.203s1.114,1.485,1.114,2.652c0,1.677-0.666,2.976-1.996,3.896
			c-1.331,0.92-3.204,1.381-5.619,1.381c-1.769,0-3.154-0.335-4.156-1.005s-1.504-1.616-1.504-2.837
			c0-0.957,0.328-1.787,0.984-2.488s1.718-1.299,3.186-1.791c-0.711-0.374-1.066-0.925-1.066-1.654c0-0.629,0.232-1.169,0.697-1.62
			s1.111-0.873,1.941-1.265c-0.574-0.292-1.044-0.722-1.408-1.292c-0.365-0.569-0.547-1.232-0.547-1.989
			c0-1.768,0.545-3.217,1.634-4.348c1.089-1.13,2.481-1.695,4.177-1.695c0.711,0,1.412,0.091,2.105,0.273H149.25z M134.689,94.946
			c0,0.702,0.296,1.258,0.889,1.668c0.592,0.41,1.472,0.615,2.639,0.615c1.658,0,2.955-0.29,3.89-0.868
			c0.935-0.579,1.401-1.397,1.401-2.454c0-0.565-0.246-1.012-0.738-1.34s-1.331-0.556-2.516-0.684l-2.174-0.219
			c-1.094,0.228-1.933,0.629-2.516,1.203C134.98,93.442,134.689,94.134,134.689,94.946z M138.49,82.983
			c0,0.775,0.205,1.365,0.615,1.771c0.41,0.406,0.979,0.608,1.709,0.608c0.72,0,1.349-0.191,1.887-0.574
			c0.537-0.383,0.95-0.909,1.237-1.579s0.431-1.396,0.431-2.181c0-0.747-0.201-1.317-0.602-1.709
			c-0.401-0.392-0.976-0.588-1.723-0.588c-0.711,0-1.333,0.185-1.866,0.554s-0.948,0.884-1.244,1.545
			C138.639,81.491,138.49,82.208,138.49,82.983z"/>
		<path fill="#938970" d="M151.314,92.28h-2.297l4.539-21.273h2.297L151.314,92.28z"/>
		<path fill="#938970" d="M162.074,92.553c-1.678,0-2.994-0.497-3.951-1.49c-0.957-0.993-1.436-2.37-1.436-4.129
			c0-1.713,0.34-3.356,1.019-4.929s1.579-2.796,2.7-3.671s2.355-1.313,3.705-1.313c1.395,0,2.442,0.303,3.145,0.909
			c0.701,0.606,1.053,1.452,1.053,2.536c0,1.641-0.757,2.928-2.27,3.862c-1.514,0.935-3.678,1.401-6.494,1.401h-0.451l-0.055,1.094
			c0,1.194,0.28,2.126,0.841,2.796s1.429,1.005,2.604,1.005c0.574,0,1.164-0.082,1.771-0.246s1.36-0.465,2.263-0.902v1.996
			c-0.857,0.401-1.613,0.682-2.27,0.841S162.867,92.553,162.074,92.553z M163.975,78.977c-0.939,0-1.82,0.429-2.646,1.285
			c-0.825,0.857-1.456,2.046-1.894,3.568h0.164c2.078,0,3.671-0.271,4.778-0.813c1.107-0.542,1.661-1.328,1.661-2.358
			c0-0.483-0.166-0.884-0.499-1.203C165.207,79.137,164.686,78.977,163.975,78.977z"/>
		<path fill="#938970" d="M115.111,103.116c0,2.023-0.69,3.58-2.071,4.669c-1.381,1.089-3.356,1.633-5.927,1.633h-2.352v7.861
			h-2.324V97.292h5.182C112.613,97.292,115.111,99.233,115.111,103.116z M104.762,107.422h2.092c2.06,0,3.55-0.332,4.471-0.998
			c0.92-0.664,1.381-1.731,1.381-3.199c0-1.321-0.434-2.306-1.299-2.953c-0.866-0.647-2.215-0.971-4.047-0.971h-2.598V107.422z"/>
		<path fill="#938970" d="M121.223,117.279h-2.27V96.006h2.27V117.279z"/>
		<path fill="#938970" d="M135.25,117.279l-0.451-2.133h-0.109c-0.748,0.939-1.492,1.575-2.235,1.908
			c-0.743,0.332-1.671,0.498-2.782,0.498c-1.486,0-2.65-0.383-3.493-1.148s-1.265-1.854-1.265-3.268c0-3.025,2.42-4.611,7.26-4.758
			l2.543-0.082v-0.93c0-1.176-0.253-2.043-0.759-2.604c-0.506-0.561-1.315-0.841-2.427-0.841c-1.249,0-2.662,0.383-4.238,1.148
			l-0.697-1.736c0.738-0.401,1.547-0.715,2.427-0.943c0.88-0.228,1.761-0.342,2.646-0.342c1.786,0,3.11,0.396,3.972,1.189
			s1.292,2.064,1.292,3.814v10.227H135.25z M130.123,115.68c1.412,0,2.522-0.387,3.329-1.162c0.807-0.773,1.21-1.859,1.21-3.254
			v-1.354l-2.27,0.096c-1.805,0.064-3.105,0.345-3.903,0.842c-0.798,0.496-1.196,1.27-1.196,2.316c0,0.82,0.248,1.445,0.745,1.873
			C128.535,115.467,129.229,115.68,130.123,115.68z"/>
		<path fill="#938970" d="M139.229,102.295h2.434l3.281,8.544c0.72,1.951,1.166,3.359,1.34,4.225h0.109
			c0.118-0.465,0.367-1.26,0.745-2.385c0.378-1.126,1.615-4.588,3.712-10.384h2.434l-6.439,17.062
			c-0.639,1.687-1.383,2.883-2.235,3.59c-0.853,0.705-1.898,1.059-3.138,1.059c-0.693,0-1.377-0.077-2.051-0.232v-1.818
			c0.501,0.109,1.062,0.164,1.682,0.164c1.559,0,2.67-0.875,3.336-2.625l0.834-2.133L139.229,102.295z"/>
	</g>
	<g>
	</g>
	<g>
	</g>
	<g>
	</g>
	<g>
	</g>
	<g>
	</g>
	<g>
	</g>
	<g>
	</g>
	<g>
	</g>
	<g>
	</g>
	<g>
	</g>
	<g>
	</g>
	<g>
	</g>
	<g>
	</g>
	<g>
	</g>
	<g>
	</g>
</g>
</svg>
