<?xml version="1.0" encoding="utf-8"?>
<!-- Generator: Adobe Illustrator 16.0.0, SVG Export Plug-In . SVG Version: 6.00 Build 0)  -->
<!DOCTYPE svg PUBLIC "-//W3C//DTD SVG 1.1//EN" "http://www.w3.org/Graphics/SVG/1.1/DTD/svg11.dtd">
<svg version="1.1" id="Layer_1" xmlns="http://www.w3.org/2000/svg" xmlns:xlink="http://www.w3.org/1999/xlink" x="0px" y="0px"
	 width="208px" height="208px" viewBox="0 0 208 208" enable-background="new 0 0 208 208" xml:space="preserve">
<circle fill="#8E7D35" cx="109" cy="109" r="97"/>
<circle fill="#EDBA08" cx="50" cy="50" r="48"/>
<g>
	<rect x="10.888" y="34.646" fill="none" width="86.112" height="60.354"/>
	<path fill="#FFFFFF" d="M28.668,60.486l-3.337-10.675c-0.21-0.653-0.604-2.136-1.179-4.449H24.02
		c-0.443,1.937-0.83,3.431-1.162,4.482l-3.437,10.642h-3.188L11.27,42.291h2.889c1.173,4.571,2.067,8.052,2.681,10.442
		s0.965,4.001,1.054,4.831h0.133c0.122-0.631,0.318-1.447,0.589-2.449c0.271-1.001,0.506-1.795,0.706-2.382l3.337-10.442h2.988
		L28.9,52.733c0.62,1.904,1.04,3.503,1.262,4.798h0.133c0.044-0.398,0.163-1.013,0.357-1.843c0.193-0.83,1.347-5.296,3.461-13.397
		h2.855l-5.03,18.195H28.668z"/>
	<path fill="#FFFFFF" d="M52.707,60.486V48.715c0-1.483-0.338-2.59-1.013-3.32c-0.675-0.73-1.732-1.096-3.171-1.096
		c-1.915,0-3.312,0.521-4.192,1.561c-0.88,1.041-1.32,2.745-1.32,5.113v9.513h-2.756V34.654h2.756v7.819
		c0,0.941-0.044,1.721-0.133,2.341h0.166c0.542-0.874,1.314-1.563,2.316-2.067c1.001-0.503,2.144-0.755,3.428-0.755
		c2.225,0,3.893,0.529,5.005,1.585c1.112,1.057,1.668,2.737,1.668,5.039v11.87H52.707z"/>
	<path fill="#FFFFFF" d="M58.235,42.291h2.955l3.984,10.376c0.874,2.369,1.417,4.079,1.627,5.13h0.133
		c0.144-0.564,0.445-1.53,0.905-2.897c0.459-1.367,1.961-5.57,4.507-12.609h2.955l-7.819,20.719c-0.775,2.047-1.68,3.5-2.714,4.358
		c-1.035,0.857-2.305,1.287-3.81,1.287c-0.841,0-1.671-0.094-2.49-0.282v-2.208c0.608,0.133,1.289,0.199,2.042,0.199
		c1.893,0,3.243-1.063,4.051-3.188l1.013-2.59L58.235,42.291z"/>
	<path fill="#FFFFFF" d="M80.133,53.795v-0.896c0-1.295,0.199-2.36,0.598-3.196c0.398-0.835,1.14-1.718,2.225-2.648
		c1.505-1.272,2.454-2.23,2.847-2.872c0.393-0.642,0.589-1.417,0.589-2.324c0-1.129-0.363-2-1.087-2.615
		c-0.725-0.614-1.768-0.921-3.129-0.921c-0.875,0-1.727,0.103-2.557,0.307c-0.83,0.205-1.782,0.579-2.855,1.121l-0.979-2.241
		c2.092-1.096,4.277-1.644,6.558-1.644c2.114,0,3.757,0.521,4.931,1.561c1.173,1.041,1.76,2.507,1.76,4.399
		c0,0.808-0.108,1.519-0.324,2.133s-0.534,1.195-0.955,1.743c-0.421,0.548-1.328,1.431-2.723,2.648
		c-1.118,0.952-1.857,1.743-2.216,2.374c-0.36,0.631-0.54,1.472-0.54,2.523v0.548H80.133z M79.319,58.726
		c0-1.505,0.664-2.258,1.992-2.258c0.642,0,1.137,0.194,1.486,0.581c0.349,0.388,0.523,0.946,0.523,1.677
		c0,0.708-0.177,1.259-0.531,1.652c-0.354,0.393-0.847,0.589-1.478,0.589c-0.576,0-1.052-0.174-1.428-0.523
		C79.507,60.096,79.319,59.523,79.319,58.726z"/>
</g>
<g>
	<rect x="22.479" y="63.187" fill="none" width="165.042" height="99.354"/>
	<path fill="#FFFFFF" d="M103.019,89.787V64.801h2.905v22.354h11.023v2.632H103.019z"/>
	<path fill="#FFFFFF" d="M119.293,65.98c0-0.649,0.16-1.125,0.479-1.427c0.319-0.301,0.719-0.453,1.197-0.453
		c0.455,0,0.848,0.154,1.179,0.461c0.33,0.308,0.495,0.781,0.495,1.418c0,0.638-0.165,1.114-0.495,1.427
		c-0.331,0.313-0.724,0.47-1.179,0.47c-0.479,0-0.878-0.156-1.197-0.47C119.453,67.094,119.293,66.619,119.293,65.98z
		 M122.369,89.787h-2.836v-18.73h2.836V89.787z"/>
	<path fill="#FFFFFF" d="M131.262,89.787l-7.109-18.73h3.043l4.033,11.108c0.91,2.598,1.445,4.284,1.605,5.059h0.137
		c0.125-0.604,0.521-1.854,1.188-3.751c0.668-1.897,2.162-6.036,4.486-12.416h3.043l-7.109,18.73H131.262z"/>
	<path fill="#FFFFFF" d="M143.23,65.98c0-0.649,0.16-1.125,0.479-1.427c0.318-0.301,0.719-0.453,1.197-0.453
		c0.455,0,0.848,0.154,1.18,0.461c0.33,0.308,0.494,0.781,0.494,1.418c0,0.638-0.164,1.114-0.494,1.427
		c-0.332,0.313-0.725,0.47-1.18,0.47c-0.479,0-0.879-0.156-1.197-0.47S143.23,66.619,143.23,65.98z M146.307,89.787h-2.836v-18.73
		h2.836V89.787z"/>
	<path fill="#FFFFFF" d="M163.914,89.787V77.67c0-1.526-0.348-2.666-1.041-3.418c-0.695-0.752-1.785-1.128-3.266-1.128
		c-1.959,0-3.395,0.53-4.307,1.589s-1.367,2.809-1.367,5.247v9.827h-2.836v-18.73h2.307l0.461,2.563h0.137
		c0.582-0.923,1.396-1.638,2.445-2.145c1.047-0.507,2.215-0.761,3.502-0.761c2.256,0,3.953,0.544,5.094,1.632
		c1.139,1.088,1.709,2.829,1.709,5.221v12.219H163.914z"/>
	<path fill="#FFFFFF" d="M186.686,71.056v1.794l-3.471,0.41c0.318,0.399,0.604,0.92,0.855,1.564c0.25,0.644,0.375,1.37,0.375,2.179
		c0,1.834-0.627,3.298-1.879,4.392c-1.254,1.094-2.975,1.641-5.162,1.641c-0.559,0-1.082-0.045-1.572-0.137
		c-1.207,0.638-1.811,1.441-1.811,2.41c0,0.513,0.211,0.892,0.633,1.137c0.42,0.245,1.145,0.367,2.17,0.367h3.314
		c2.027,0,3.586,0.427,4.674,1.282s1.633,2.096,1.633,3.726c0,2.073-0.832,3.654-2.494,4.743c-1.664,1.087-4.092,1.632-7.281,1.632
		c-2.449,0-4.338-0.456-5.666-1.367c-1.326-0.912-1.99-2.199-1.99-3.862c0-1.14,0.365-2.125,1.094-2.957s1.754-1.396,3.076-1.692
		c-0.479-0.216-0.881-0.552-1.205-1.008c-0.324-0.456-0.486-0.985-0.486-1.589c0-0.684,0.182-1.282,0.547-1.794
		c0.363-0.513,0.939-1.008,1.727-1.487c-0.969-0.398-1.758-1.077-2.367-2.034c-0.611-0.957-0.914-2.051-0.914-3.281
		c0-2.051,0.615-3.631,1.846-4.743c1.23-1.11,2.973-1.666,5.229-1.666c0.98,0,1.863,0.114,2.648,0.342H186.686z M171.748,92.931
		c0,1.014,0.428,1.783,1.281,2.307c0.855,0.524,2.08,0.786,3.676,0.786c2.381,0,4.143-0.356,5.289-1.068
		c1.145-0.712,1.717-1.678,1.717-2.897c0-1.014-0.314-1.717-0.939-2.111c-0.627-0.393-1.807-0.589-3.537-0.589h-3.402
		c-1.287,0-2.289,0.308-3.008,0.923C172.107,90.897,171.748,91.78,171.748,92.931z M173.287,77.055c0,1.311,0.369,2.302,1.109,2.974
		c0.74,0.672,1.771,1.008,3.094,1.008c2.77,0,4.152-1.344,4.152-4.033c0-2.814-1.4-4.221-4.203-4.221
		c-1.334,0-2.359,0.359-3.076,1.077C173.645,74.577,173.287,75.642,173.287,77.055z"/>
	<path fill="#FFFFFF" d="M132.266,115.139c0,2.199-0.799,3.914-2.393,5.145c-1.596,1.23-3.76,1.846-6.495,1.846
		c-2.962,0-5.241-0.382-6.836-1.146v-2.803c1.025,0.433,2.142,0.774,3.35,1.025s2.403,0.376,3.589,0.376
		c1.937,0,3.395-0.367,4.375-1.102c0.98-0.736,1.471-1.758,1.471-3.068c0-0.865-0.174-1.574-0.521-2.127s-0.93-1.063-1.744-1.53
		c-0.814-0.467-2.054-0.997-3.717-1.589c-2.324-0.832-3.984-1.817-4.981-2.957c-0.997-1.139-1.495-2.626-1.495-4.46
		c0-1.925,0.723-3.458,2.17-4.597c1.447-1.139,3.361-1.709,5.742-1.709c2.484,0,4.768,0.456,6.854,1.367l-0.906,2.529
		c-2.063-0.866-4.066-1.299-6.016-1.299c-1.538,0-2.74,0.331-3.605,0.991c-0.867,0.661-1.299,1.578-1.299,2.751
		c0,0.866,0.158,1.575,0.479,2.128c0.318,0.552,0.856,1.06,1.614,1.521s1.917,0.971,3.478,1.529c2.621,0.935,4.424,1.938,5.41,3.008
		C131.771,112.04,132.266,113.43,132.266,115.139z"/>
	<path fill="#FFFFFF" d="M141.771,119.787c0.502,0,0.986-0.037,1.453-0.111s0.838-0.15,1.111-0.23v2.17
		c-0.309,0.148-0.762,0.271-1.359,0.367c-0.598,0.098-1.137,0.146-1.615,0.146c-3.623,0-5.434-1.908-5.434-5.726v-11.143h-2.684
		v-1.367l2.684-1.179l1.195-3.999h1.641v4.341h5.436v2.205h-5.436v11.022c0,1.129,0.268,1.994,0.805,2.598
		C140.104,119.485,140.838,119.787,141.771,119.787z"/>
	<path fill="#FFFFFF" d="M143.879,103.056h3.041l4.102,10.681c0.9,2.438,1.459,4.198,1.676,5.28h0.137
		c0.146-0.58,0.457-1.574,0.932-2.982c0.473-1.406,2.018-5.732,4.639-12.979h3.043l-8.051,21.329
		c-0.797,2.107-1.729,3.603-2.793,4.486c-1.066,0.882-2.373,1.324-3.922,1.324c-0.867,0-1.721-0.098-2.564-0.291v-2.273
		c0.627,0.137,1.328,0.205,2.102,0.205c1.949,0,3.34-1.094,4.17-3.281l1.043-2.666L143.879,103.056z"/>
	<path fill="#FFFFFF" d="M166.102,121.787h-2.838V95.195h2.838V121.787z"/>
	<path fill="#FFFFFF" d="M178.803,122.129c-2.768,0-4.953-0.844-6.553-2.529c-1.602-1.687-2.402-4.027-2.402-7.024
		c0-3.019,0.744-5.417,2.23-7.194c1.488-1.778,3.484-2.667,5.99-2.667c2.348,0,4.205,0.772,5.572,2.315
		c1.367,1.545,2.051,3.581,2.051,6.11v1.794h-12.904c0.059,2.199,0.613,3.869,1.668,5.008c1.053,1.14,2.537,1.709,4.451,1.709
		c2.016,0,4.01-0.422,5.98-1.265v2.529c-1.002,0.433-1.951,0.743-2.844,0.931C181.148,122.035,180.068,122.129,178.803,122.129z
		 M178.035,105.09c-1.504,0-2.703,0.49-3.598,1.47s-1.422,2.336-1.582,4.067h9.793c0-1.789-0.398-3.158-1.195-4.109
		C180.654,105.566,179.516,105.09,178.035,105.09z"/>
	<path fill="#FFFFFF" d="M109.945,140.696h8.494v12.151c-1.322,0.421-2.666,0.74-4.033,0.957c-1.367,0.216-2.951,0.324-4.752,0.324
		c-3.782,0-6.728-1.125-8.835-3.375c-2.108-2.25-3.162-5.403-3.162-9.459c0-2.598,0.521-4.873,1.564-6.828
		c1.042-1.953,2.543-3.445,4.503-4.478c1.959-1.03,4.256-1.546,6.887-1.546c2.666,0,5.15,0.49,7.451,1.469l-1.127,2.564
		c-2.256-0.957-4.427-1.436-6.512-1.436c-3.042,0-5.418,0.905-7.126,2.717c-1.709,1.812-2.563,4.324-2.563,7.537
		c0,3.372,0.823,5.93,2.469,7.673s4.064,2.614,7.255,2.614c1.731,0,3.423-0.199,5.075-0.598v-7.69h-5.588V140.696z"/>
	<path fill="#FFFFFF" d="M125.451,135.057v12.15c0,1.527,0.348,2.666,1.043,3.418s1.783,1.129,3.264,1.129
		c1.959,0,3.393-0.535,4.299-1.607c0.906-1.07,1.357-2.819,1.357-5.246v-9.844h2.838v18.73h-2.342l-0.41-2.512h-0.154
		c-0.58,0.922-1.387,1.629-2.418,2.119c-1.031,0.489-2.207,0.734-3.529,0.734c-2.277,0-3.984-0.541-5.118-1.623
		s-1.7-2.814-1.7-5.195v-12.254H125.451z"/>
	<path fill="#FFFFFF" d="M142.803,129.98c0-0.648,0.158-1.125,0.479-1.427c0.318-0.302,0.717-0.452,1.195-0.452
		c0.455,0,0.85,0.153,1.18,0.461s0.496,0.781,0.496,1.418c0,0.639-0.166,1.114-0.496,1.428s-0.725,0.47-1.18,0.47
		c-0.479,0-0.877-0.156-1.195-0.47C142.961,131.095,142.803,130.619,142.803,129.98z M145.879,153.787h-2.838v-18.73h2.838V153.787z
		"/>
	<path fill="#FFFFFF" d="M163.418,151.275h-0.152c-1.311,1.902-3.271,2.854-5.879,2.854c-2.451,0-4.355-0.838-5.717-2.512
		c-1.363-1.676-2.043-4.057-2.043-7.145c0-3.087,0.684-5.485,2.051-7.194s3.27-2.563,5.709-2.563c2.539,0,4.488,0.923,5.844,2.769
		h0.223l-0.119-1.351l-0.068-1.315v-7.622h2.836v26.592h-2.307L163.418,151.275z M157.744,151.754c1.938,0,3.342-0.527,4.213-1.581
		s1.309-2.755,1.309-5.102v-0.599c0-2.654-0.443-4.548-1.326-5.682s-2.293-1.701-4.229-1.701c-1.664,0-2.938,0.647-3.82,1.94
		s-1.324,3.118-1.324,5.478c0,2.393,0.438,4.198,1.316,5.417C154.76,151.145,156.047,151.754,157.744,151.754z"/>
	<path fill="#FFFFFF" d="M178.805,154.129c-2.768,0-4.953-0.843-6.555-2.529c-1.6-1.686-2.4-4.027-2.4-7.023
		c0-3.02,0.744-5.418,2.23-7.195s3.482-2.666,5.99-2.666c2.346,0,4.203,0.771,5.57,2.315s2.051,3.581,2.051,6.11v1.794h-12.902
		c0.057,2.199,0.611,3.868,1.666,5.007c1.055,1.141,2.539,1.709,4.453,1.709c2.016,0,4.01-0.421,5.98-1.264v2.529
		c-1.002,0.433-1.951,0.743-2.846,0.931C181.148,154.035,180.07,154.129,178.805,154.129z M178.035,137.09
		c-1.504,0-2.703,0.49-3.598,1.471c-0.895,0.979-1.42,2.336-1.58,4.066h9.793c0-1.788-0.4-3.158-1.197-4.109
		S179.516,137.09,178.035,137.09z"/>
</g>
<g>
</g>
<g>
</g>
<g>
</g>
<g>
</g>
<g>
</g>
<g>
</g>
<g>
</g>
<g>
</g>
<g>
</g>
<g>
</g>
<g>
</g>
<g>
</g>
<g>
</g>
<g>
</g>
<g>
</g>
</svg>
